<svg width="128" height="128" viewBox="0 0 128 128" fill="none" xmlns="http://www.w3.org/2000/svg">
<mask id="path-1-outside-1_1_10" maskUnits="userSpaceOnUse" x="24.296" y="31.2147" width="77" height="76" fill="black">
<rect fill="white" x="24.296" y="31.2147" width="77" height="76"/>
<path d="M83.104 95.8C81.5 94 83.104 79.48 83.104 79.48H81.184C80.3733 80.8453 79.1147 81.9547 77.408 82.808C75.7013 83.6187 73.8027 84.024 71.712 84.024C68.512 84.024 65.7387 83.2133 63.392 81.592C61.088 79.928 59.2747 77.5813 57.952 74.552C56.672 71.5227 56.032 67.9387 56.032 63.8C56.032 59.6613 56.672 56.0773 57.952 53.048C59.2747 50.0187 61.088 47.6933 63.392 46.072C65.7387 44.408 68.512 43.576 71.712 43.576C73.8027 43.576 75.7013 43.9813 77.408 44.792C79.1147 45.6027 82.2933 46.712 83.104 48.12C83.104 48.12 83.896 45.4 85 44C86.104 42.6 91.144 39.1 90 43C88.856 46.9 92 94 90.144 95.8C88.288 97.6 84.708 97.6 83.104 95.8ZM73.184 77.432C76.4267 77.432 78.9227 76.2373 80.672 73.848C82.464 71.4587 83.36 68.1093 83.36 63.8C83.36 59.4907 82.464 56.1413 80.672 53.752C78.9227 51.3627 76.4267 50.168 73.184 50.168C69.984 50.168 67.488 51.3627 65.696 53.752C63.9467 56.1413 63.072 59.4907 63.072 63.8C63.072 68.1093 63.9467 71.4587 65.696 73.848C67.488 76.2373 69.984 77.432 73.184 77.432Z"/>
<path d="M50.672 44.616C52.344 46.232 50 53 50.672 54.6C51.344 56.2 65.904 53.2 67.952 54.6C70 56 69.904 60.384 67.952 61.192C66 62 51.844 59.884 50.672 61.192C49.5 62.5 50.672 80.392 50.672 80.392C50.672 82.6533 51.1413 84.4027 52.08 85.64C53.0187 86.8347 54.384 87.432 56.176 87.432C58.0533 87.432 59.504 86.792 60.528 85.512C61.5947 84.1893 62.384 82.2053 62.896 79.56H69.104C68.8907 84.2533 67.6533 87.8373 65.392 90.312C63.1307 92.7867 59.9733 94.024 55.92 94.024C51.9947 94.024 48.9653 92.8507 46.832 90.504C44.6987 88.1573 43.632 84.872 43.632 80.648C43.632 80.648 44.764 62.884 43.632 61.192C43.632 61.192 36.368 62.384 35.184 61.192C34 60 34 56 35.184 54.6C36.368 53.2 42.5 56 43.632 54.6C44.764 53.2 42 46 43.632 44.616C45.264 43.232 49 43 50.672 44.616Z"/>
</mask>
<path d="M83.104 95.8C81.5 94 83.104 79.48 83.104 79.48H81.184C80.3733 80.8453 79.1147 81.9547 77.408 82.808C75.7013 83.6187 73.8027 84.024 71.712 84.024C68.512 84.024 65.7387 83.2133 63.392 81.592C61.088 79.928 59.2747 77.5813 57.952 74.552C56.672 71.5227 56.032 67.9387 56.032 63.8C56.032 59.6613 56.672 56.0773 57.952 53.048C59.2747 50.0187 61.088 47.6933 63.392 46.072C65.7387 44.408 68.512 43.576 71.712 43.576C73.8027 43.576 75.7013 43.9813 77.408 44.792C79.1147 45.6027 82.2933 46.712 83.104 48.12C83.104 48.12 83.896 45.4 85 44C86.104 42.6 91.144 39.1 90 43C88.856 46.9 92 94 90.144 95.8C88.288 97.6 84.708 97.6 83.104 95.8ZM73.184 77.432C76.4267 77.432 78.9227 76.2373 80.672 73.848C82.464 71.4587 83.36 68.1093 83.36 63.8C83.36 59.4907 82.464 56.1413 80.672 53.752C78.9227 51.3627 76.4267 50.168 73.184 50.168C69.984 50.168 67.488 51.3627 65.696 53.752C63.9467 56.1413 63.072 59.4907 63.072 63.8C63.072 68.1093 63.9467 71.4587 65.696 73.848C67.488 76.2373 69.984 77.432 73.184 77.432Z" fill="white"/>
<path d="M50.672 44.616C52.344 46.232 50 53 50.672 54.6C51.344 56.2 65.904 53.2 67.952 54.6C70 56 69.904 60.384 67.952 61.192C66 62 51.844 59.884 50.672 61.192C49.5 62.5 50.672 80.392 50.672 80.392C50.672 82.6533 51.1413 84.4027 52.08 85.64C53.0187 86.8347 54.384 87.432 56.176 87.432C58.0533 87.432 59.504 86.792 60.528 85.512C61.5947 84.1893 62.384 82.2053 62.896 79.56H69.104C68.8907 84.2533 67.6533 87.8373 65.392 90.312C63.1307 92.7867 59.9733 94.024 55.92 94.024C51.9947 94.024 48.9653 92.8507 46.832 90.504C44.6987 88.1573 43.632 84.872 43.632 80.648C43.632 80.648 44.764 62.884 43.632 61.192C43.632 61.192 36.368 62.384 35.184 61.192C34 60 34 56 35.184 54.6C36.368 53.2 42.5 56 43.632 54.6C44.764 53.2 42 46 43.632 44.616C45.264 43.232 49 43 50.672 44.616Z" fill="white"/>
<path d="M83.104 95.8C81.5 94 83.104 79.48 83.104 79.48H81.184C80.3733 80.8453 79.1147 81.9547 77.408 82.808C75.7013 83.6187 73.8027 84.024 71.712 84.024C68.512 84.024 65.7387 83.2133 63.392 81.592C61.088 79.928 59.2747 77.5813 57.952 74.552C56.672 71.5227 56.032 67.9387 56.032 63.8C56.032 59.6613 56.672 56.0773 57.952 53.048C59.2747 50.0187 61.088 47.6933 63.392 46.072C65.7387 44.408 68.512 43.576 71.712 43.576C73.8027 43.576 75.7013 43.9813 77.408 44.792C79.1147 45.6027 82.2933 46.712 83.104 48.12C83.104 48.12 83.896 45.4 85 44C86.104 42.6 91.144 39.1 90 43C88.856 46.9 92 94 90.144 95.8C88.288 97.6 84.708 97.6 83.104 95.8ZM73.184 77.432C76.4267 77.432 78.9227 76.2373 80.672 73.848C82.464 71.4587 83.36 68.1093 83.36 63.8C83.36 59.4907 82.464 56.1413 80.672 53.752C78.9227 51.3627 76.4267 50.168 73.184 50.168C69.984 50.168 67.488 51.3627 65.696 53.752C63.9467 56.1413 63.072 59.4907 63.072 63.8C63.072 68.1093 63.9467 71.4587 65.696 73.848C67.488 76.2373 69.984 77.432 73.184 77.432Z" stroke="black" stroke-width="20" mask="url(#path-1-outside-1_1_10)"/>
<path d="M50.672 44.616C52.344 46.232 50 53 50.672 54.6C51.344 56.2 65.904 53.2 67.952 54.6C70 56 69.904 60.384 67.952 61.192C66 62 51.844 59.884 50.672 61.192C49.5 62.5 50.672 80.392 50.672 80.392C50.672 82.6533 51.1413 84.4027 52.08 85.64C53.0187 86.8347 54.384 87.432 56.176 87.432C58.0533 87.432 59.504 86.792 60.528 85.512C61.5947 84.1893 62.384 82.2053 62.896 79.56H69.104C68.8907 84.2533 67.6533 87.8373 65.392 90.312C63.1307 92.7867 59.9733 94.024 55.92 94.024C51.9947 94.024 48.9653 92.8507 46.832 90.504C44.6987 88.1573 43.632 84.872 43.632 80.648C43.632 80.648 44.764 62.884 43.632 61.192C43.632 61.192 36.368 62.384 35.184 61.192C34 60 34 56 35.184 54.6C36.368 53.2 42.5 56 43.632 54.6C44.764 53.2 42 46 43.632 44.616C45.264 43.232 49 43 50.672 44.616Z" stroke="black" stroke-width="20" mask="url(#path-1-outside-1_1_10)"/>
</svg>
